<svg width="38" height="9" viewBox="0 0 38 9" fill="none" xmlns="http://www.w3.org/2000/svg">
<path d="M0.689309 2.82266C0.718643 2.038 0.975309 1.433 1.45931 1.00766C1.94331 0.582329 2.59964 0.369662 3.42831 0.369662C3.97831 0.369662 4.44764 0.464995 4.83631 0.655662C5.23231 0.846329 5.52931 1.10666 5.72731 1.43666C5.93264 1.76666 6.03531 2.137 6.03531 2.54766C6.03531 3.03166 5.91431 3.42766 5.67231 3.73566C5.43031 4.03633 5.14798 4.24166 4.82531 4.35166V4.39566C5.24331 4.535 5.57331 4.766 5.81531 5.08866C6.05731 5.41133 6.17831 5.82566 6.17831 6.33166C6.17831 6.78633 6.07198 7.18966 5.85931 7.54166C5.65398 7.88633 5.34964 8.15766 4.94631 8.35566C4.55031 8.55366 4.07731 8.65266 3.52731 8.65266C2.64731 8.65266 1.94331 8.43633 1.41531 8.00366C0.894643 7.571 0.619643 6.91833 0.590309 6.04566H2.41631C2.42364 6.36833 2.51531 6.625 2.69131 6.81566C2.86731 6.999 3.12398 7.09066 3.46131 7.09066C3.74731 7.09066 3.96731 7.01 4.12131 6.84866C4.28264 6.68 4.36331 6.46 4.36331 6.18866C4.36331 5.83666 4.24964 5.58366 4.02231 5.42966C3.80231 5.26833 3.44664 5.18766 2.95531 5.18766H2.60331V3.65866H2.95531C3.32931 3.65866 3.62998 3.59633 3.85731 3.47166C4.09198 3.33966 4.20931 3.10866 4.20931 2.77866C4.20931 2.51466 4.13598 2.30933 3.98931 2.16266C3.84264 2.016 3.64098 1.94266 3.38431 1.94266C3.10564 1.94266 2.89664 2.027 2.75731 2.19566C2.62531 2.36433 2.54831 2.57333 2.52631 2.82266H0.689309ZM11.2545 2.72366C11.1958 2.45233 11.0931 2.25066 10.9465 2.11866C10.7998 1.97933 10.5908 1.90966 10.3195 1.90966C9.90147 1.90966 9.6008 2.093 9.41747 2.45966C9.23413 2.819 9.1388 3.391 9.13147 4.17566C9.2928 3.919 9.5238 3.71733 9.82447 3.57066C10.1325 3.424 10.4698 3.35066 10.8365 3.35066C11.5551 3.35066 12.1308 3.578 12.5635 4.03266C13.0035 4.48733 13.2235 5.12166 13.2235 5.93566C13.2235 6.471 13.1135 6.94033 12.8935 7.34366C12.6808 7.747 12.3655 8.06233 11.9475 8.28966C11.5368 8.517 11.0491 8.63066 10.4845 8.63066C9.35513 8.63066 8.57047 8.27866 8.13047 7.57466C7.69047 6.86333 7.47047 5.844 7.47047 4.51666C7.47047 3.12333 7.70147 2.08933 8.16347 1.41466C8.6328 0.732662 9.3808 0.391662 10.4075 0.391662C10.9575 0.391662 11.4195 0.501662 11.7935 0.721662C12.1748 0.934328 12.4608 1.21666 12.6515 1.56866C12.8495 1.92066 12.9668 2.30566 13.0035 2.72366H11.2545ZM10.3855 4.83566C10.0701 4.83566 9.80613 4.931 9.59347 5.12166C9.38813 5.305 9.28547 5.569 9.28547 5.91366C9.28547 6.26566 9.3808 6.54066 9.57147 6.73866C9.76947 6.93666 10.0481 7.03566 10.4075 7.03566C10.7301 7.03566 10.9831 6.94033 11.1665 6.74966C11.3571 6.55166 11.4525 6.284 11.4525 5.94666C11.4525 5.602 11.3608 5.33066 11.1775 5.13266C10.9941 4.93466 10.7301 4.83566 10.3855 4.83566ZM14.2874 4.46166C14.2874 3.20033 14.5294 2.20666 15.0134 1.48066C15.5047 0.754662 16.293 0.391662 17.3784 0.391662C18.4637 0.391662 19.2484 0.754662 19.7324 1.48066C20.2237 2.20666 20.4694 3.20033 20.4694 4.46166C20.4694 5.73766 20.2237 6.73866 19.7324 7.46466C19.2484 8.19066 18.4637 8.55366 17.3784 8.55366C16.293 8.55366 15.5047 8.19066 15.0134 7.46466C14.5294 6.73866 14.2874 5.73766 14.2874 4.46166ZM18.6214 4.46166C18.6214 3.721 18.5407 3.15266 18.3794 2.75666C18.218 2.35333 17.8844 2.15166 17.3784 2.15166C16.8724 2.15166 16.5387 2.35333 16.3774 2.75666C16.216 3.15266 16.1354 3.721 16.1354 4.46166C16.1354 4.96033 16.1647 5.37466 16.2234 5.70466C16.282 6.02733 16.3994 6.29133 16.5754 6.49666C16.7587 6.69466 17.0264 6.79366 17.3784 6.79366C17.7304 6.79366 17.9944 6.69466 18.1704 6.49666C18.3537 6.29133 18.4747 6.02733 18.5334 5.70466C18.592 5.37466 18.6214 4.96033 18.6214 4.46166ZM22.5302 8.67466C22.2002 8.67466 21.9288 8.57933 21.7162 8.38866C21.5108 8.19066 21.4082 7.94866 21.4082 7.66266C21.4082 7.36933 21.5108 7.12366 21.7162 6.92566C21.9288 6.72766 22.2002 6.62866 22.5302 6.62866C22.8528 6.62866 23.1168 6.72766 23.3222 6.92566C23.5348 7.12366 23.6412 7.36933 23.6412 7.66266C23.6412 7.94866 23.5348 8.19066 23.3222 8.38866C23.1168 8.57933 22.8528 8.67466 22.5302 8.67466ZM24.5676 4.46166C24.5676 3.20033 24.8096 2.20666 25.2936 1.48066C25.785 0.754662 26.5733 0.391662 27.6586 0.391662C28.744 0.391662 29.5286 0.754662 30.0126 1.48066C30.504 2.20666 30.7496 3.20033 30.7496 4.46166C30.7496 5.73766 30.504 6.73866 30.0126 7.46466C29.5286 8.19066 28.744 8.55366 27.6586 8.55366C26.5733 8.55366 25.785 8.19066 25.2936 7.46466C24.8096 6.73866 24.5676 5.73766 24.5676 4.46166ZM28.9016 4.46166C28.9016 3.721 28.821 3.15266 28.6596 2.75666C28.4983 2.35333 28.1646 2.15166 27.6586 2.15166C27.1526 2.15166 26.819 2.35333 26.6576 2.75666C26.4963 3.15266 26.4156 3.721 26.4156 4.46166C26.4156 4.96033 26.445 5.37466 26.5036 5.70466C26.5623 6.02733 26.6796 6.29133 26.8556 6.49666C27.039 6.69466 27.3066 6.79366 27.6586 6.79366C28.0106 6.79366 28.2746 6.69466 28.4506 6.49666C28.634 6.29133 28.755 6.02733 28.8136 5.70466C28.8723 5.37466 28.9016 4.96033 28.9016 4.46166ZM31.7434 4.46166C31.7434 3.20033 31.9854 2.20666 32.4694 1.48066C32.9608 0.754662 33.7491 0.391662 34.8344 0.391662C35.9198 0.391662 36.7044 0.754662 37.1884 1.48066C37.6798 2.20666 37.9254 3.20033 37.9254 4.46166C37.9254 5.73766 37.6798 6.73866 37.1884 7.46466C36.7044 8.19066 35.9198 8.55366 34.8344 8.55366C33.7491 8.55366 32.9608 8.19066 32.4694 7.46466C31.9854 6.73866 31.7434 5.73766 31.7434 4.46166ZM36.0774 4.46166C36.0774 3.721 35.9968 3.15266 35.8354 2.75666C35.6741 2.35333 35.3404 2.15166 34.8344 2.15166C34.3284 2.15166 33.9948 2.35333 33.8334 2.75666C33.6721 3.15266 33.5914 3.721 33.5914 4.46166C33.5914 4.96033 33.6208 5.37466 33.6794 5.70466C33.7381 6.02733 33.8554 6.29133 34.0314 6.49666C34.2148 6.69466 34.4824 6.79366 34.8344 6.79366C35.1864 6.79366 35.4504 6.69466 35.6264 6.49666C35.8098 6.29133 35.9308 6.02733 35.9894 5.70466C36.0481 5.37466 36.0774 4.96033 36.0774 4.46166Z" fill="#1C1C1C"/>
</svg>
