<svg width="94" height="63" viewBox="0 0 94 63" fill="none" xmlns="http://www.w3.org/2000/svg">
<g filter="url(#filter0_d_66_91)">
<path d="M16 12.6368C16 8.2185 19.5817 4.63678 24 4.63678H69.3131C73.7314 4.63678 77.3131 8.2185 77.3131 12.6368V19.8335C77.3131 24.1089 73.9514 27.6287 69.6805 27.8251L61.8078 28.187C58.9536 28.3182 56.1912 29.2358 53.8258 30.8384L49.3223 33.8896C47.6989 34.9895 45.5824 35.0389 43.9095 34.0159L36.3849 29.4151C33.8258 27.8503 30.8677 27.0617 27.8693 27.1449L24.2219 27.2461C19.7184 27.371 16 23.7543 16 19.2492V12.6368Z" fill="white"/>
</g>
<defs>
<filter id="filter0_d_66_91" x="0" y="0.636776" width="93.3131" height="62.1134" filterUnits="userSpaceOnUse" color-interpolation-filters="sRGB">
<feFlood flood-opacity="0" result="BackgroundImageFix"/>
<feColorMatrix in="SourceAlpha" type="matrix" values="0 0 0 0 0 0 0 0 0 0 0 0 0 0 0 0 0 0 127 0" result="hardAlpha"/>
<feOffset dy="12"/>
<feGaussianBlur stdDeviation="8"/>
<feColorMatrix type="matrix" values="0 0 0 0 0.295833 0 0 0 0 0.117101 0 0 0 0 0.279907 0 0 0 0.08 0"/>
<feBlend mode="normal" in2="BackgroundImageFix" result="effect1_dropShadow_66_91"/>
<feBlend mode="normal" in="SourceGraphic" in2="effect1_dropShadow_66_91" result="shape"/>
</filter>
</defs>
</svg>
